<svg width="86" height="81" viewBox="0 0 86 81" fill="none" xmlns="http://www.w3.org/2000/svg">
<path fill-rule="evenodd" clip-rule="evenodd" d="M35.215 13.5435C38.4844 12.7533 42.4904 12.7511 47.1245 13.4141C47.5213 16.011 47.6301 19.1595 47.238 22.2047C46.7783 25.7747 45.6658 28.936 43.8019 30.9724C39.987 35.1407 33.5153 35.4271 29.347 31.6121C25.1788 27.7971 24.8924 21.3255 28.7074 17.1572C29.8791 15.877 31.3386 14.9066 33.0636 14.2208L33.4658 11.9538C31.011 12.731 28.9023 13.982 27.232 15.8069C22.6713 20.79 23.0137 28.5267 27.9967 33.0875C32.9798 37.6482 40.7166 37.3058 45.2773 32.3227C49.7975 27.384 50.0766 17.7966 48.8732 11.8164C48.8535 11.7187 48.7749 11.6454 48.6766 11.6293C43.8372 10.8353 39.3848 10.6643 35.593 11.413L35.215 13.5435Z" fill="#002550"/>
<path fill-rule="evenodd" clip-rule="evenodd" d="M41.3442 4.99663C45.3397 1.00112 51.8177 1.00112 55.8132 4.99663C59.8087 8.99214 59.8087 15.4701 55.8132 19.4656C54.645 20.6339 53.2286 21.51 51.5824 22.1168L51.2367 24.339C53.5527 23.6567 55.5743 22.533 57.2274 20.8799C62.004 16.1033 62.004 8.35897 57.2274 3.58242C52.4509 -1.19414 44.7066 -1.19414 39.93 3.58242C35.1959 8.31652 34.4932 17.8822 35.431 23.9097C35.4464 24.0082 35.5216 24.0849 35.6191 24.1053C40.6112 25.1529 45.2148 25.5087 49.137 24.8255L49.4638 22.7244C46.1041 23.4435 41.9946 23.2856 37.2486 22.3909C36.967 19.779 36.9976 16.6288 37.5239 13.6039C38.141 10.0577 39.3921 6.94871 41.3442 4.99663Z" fill="#002550"/>
<path d="M11.427 70.7266H0.453815V69.4151C1.47565 69.4151 2.21881 69.3345 2.68328 69.1735C3.14776 68.9894 3.43805 68.6557 3.55417 68.1725C3.69351 67.6663 3.76318 66.9185 3.76318 65.9291V52.9173C3.76318 51.9969 3.69351 51.2836 3.55417 50.7774C3.43805 50.2712 3.14776 49.9145 2.68328 49.7075C2.21881 49.4774 1.47565 49.3623 0.453815 49.3623V48.0508H11.4966V49.3623C10.4516 49.3623 9.68521 49.4774 9.19751 49.7075C8.73304 49.9145 8.44274 50.2827 8.32662 50.8119C8.23373 51.3181 8.18728 52.0199 8.18728 52.9173V65.9291C8.18728 66.8955 8.24534 67.6318 8.36146 68.138C8.5008 68.6442 8.7911 68.9894 9.23235 69.1735C9.69682 69.3345 10.4284 69.4151 11.427 69.4151V70.7266Z" fill="#002550"/>
<path d="M35.8368 70.9682H32.8758L19.1507 52.9173H18.0011L17.0954 51.3641C16.6773 50.7889 16.2941 50.3632 15.9458 50.0871C15.6207 49.811 15.2723 49.6269 14.9007 49.5349C14.5524 49.4198 14.1227 49.3623 13.6118 49.3623V48.0508H21.0666L33.5377 64.445H33.7119V53.8146C33.7119 52.8483 33.6538 52.0429 33.5377 51.3987C33.4216 50.7314 33.1313 50.2252 32.6668 49.88C32.2256 49.5349 31.4708 49.3623 30.4025 49.3623V48.0508H38.972V49.3623C38.0198 49.3623 37.3115 49.5349 36.8471 49.88C36.4058 50.2252 36.1271 50.7429 36.011 51.4332C35.8949 52.1004 35.8368 52.9173 35.8368 53.8837V70.9682ZM22.1465 70.7266H13.6118V69.4151C14.5408 69.4151 15.2375 69.185 15.7019 68.7248C16.1664 68.2416 16.4799 67.5743 16.6425 66.7229C16.8051 65.8716 16.8863 64.8707 16.8863 63.7202V50.4668H18.9765V65.3079C18.9765 66.4583 19.0578 67.3327 19.2203 67.9309C19.3829 68.5062 19.6964 68.8973 20.1609 69.1044C20.6254 69.3115 21.2872 69.4151 22.1465 69.4151V70.7266Z" fill="#002550"/>
<path d="M52.1534 70.7266H41.0409V69.4151C41.9234 69.4151 42.5853 69.346 43.0265 69.208C43.491 69.0699 43.8045 68.7708 43.9671 68.3106C44.1297 67.8504 44.2109 67.1371 44.2109 66.1707V52.0199C44.2109 51.3296 44.1413 50.8004 44.0019 50.4323C43.8626 50.0411 43.5607 49.765 43.0962 49.6039C42.655 49.4429 41.9699 49.3623 41.0409 49.3623V48.0508H51.3522C53.0243 48.0508 54.5455 48.2234 55.9156 48.5685C57.3091 48.9136 58.4122 49.5119 59.225 50.3632C60.0378 51.1916 60.4443 52.342 60.4443 53.8146C60.4443 55.0802 60.1656 56.1156 59.6082 56.9209C59.0741 57.7032 58.3774 58.313 57.5181 58.7502C56.682 59.1874 55.7763 59.521 54.8009 59.7511V59.9237C55.1725 60.1538 55.5789 60.5334 56.0202 61.0626C56.4846 61.5918 57.0884 62.3857 57.8316 63.4441C58.5748 64.4795 59.5734 65.8831 60.8274 67.6548C61.3848 68.4141 61.9306 68.8973 62.4647 69.1044C63.0221 69.3115 63.6956 69.4151 64.4852 69.4151V70.7266H57.3787C56.5427 69.323 55.846 68.161 55.2886 67.2407C54.7312 66.3203 54.2552 65.561 53.8604 64.9627C53.4656 64.3415 53.1056 63.7892 52.7805 63.306C52.4785 62.7998 52.1534 62.2821 51.8051 61.7529C51.4799 61.2237 51.1664 60.9016 50.8645 60.7865C50.5626 60.6485 50.1097 60.5794 49.5059 60.5794H48.7047V66.2052C48.7047 67.1256 48.786 67.8274 48.9486 68.3106C49.1111 68.7708 49.4363 69.0699 49.924 69.208C50.4116 69.346 51.1548 69.4151 52.1534 69.4151V70.7266ZM48.7047 59.0263L50.0285 59.0608C51.2361 58.9918 52.2579 58.7962 53.094 58.4741C53.9533 58.1519 54.6035 57.6342 55.0448 56.9209C55.5092 56.2076 55.7415 55.2297 55.7415 53.9872C55.7415 52.6527 55.3583 51.5942 54.5919 50.8119C53.8255 50.0066 52.5831 49.6039 50.8645 49.6039C50.4929 49.6039 50.1214 49.6154 49.7498 49.6384C49.4014 49.6384 49.0531 49.6614 48.7047 49.7075V59.0263Z" fill="#002550"/>
<path d="M84.9031 70.7266H65.4301V69.4151C66.2893 69.4151 66.9512 69.3575 67.4157 69.2425C67.9034 69.1044 68.2401 68.8283 68.4259 68.4141C68.6349 68 68.7394 67.3557 68.7394 66.4813V52.5376C68.7394 51.6633 68.6582 51.0075 68.4956 50.5703C68.3563 50.1101 68.0427 49.7995 67.555 49.6384C67.0906 49.4774 66.3822 49.3968 65.4301 49.3968V48.0508H84.5547L84.7637 54.0908H83.231C83.0684 53.0093 82.8246 52.1695 82.4994 51.5712C82.1975 50.973 81.6982 50.5588 81.0015 50.3287C80.328 50.0986 79.3178 49.9836 77.9708 49.9836H73.1635V58.2325H76.6471C77.7618 58.2325 78.5863 58.1634 79.1204 58.0254C79.6778 57.8873 80.0377 57.5997 80.2003 57.1625C80.3861 56.7023 80.479 56.0236 80.479 55.1262H81.9072V63.099H80.479C80.479 62.1326 80.3861 61.4308 80.2003 60.9936C80.0377 60.5334 79.6778 60.2458 79.1204 60.1307C78.5863 59.9927 77.7618 59.9237 76.6471 59.9237H73.1635V68.8283H77.4135C78.6443 68.8283 79.6429 68.7708 80.4093 68.6557C81.1757 68.5177 81.7911 68.2761 82.2556 67.9309C82.7201 67.5858 83.1033 67.1026 83.4052 66.4813C83.7071 65.8601 84.009 65.0548 84.3109 64.0654H85.774L84.9031 70.7266Z" fill="#002550"/>
<path d="M11.1123 80.8594V80.5582H11.631V77.9902H11.1123V77.689H12.6197V77.9902H12.1307V80.5582H12.6197V80.8594H11.1123Z" fill="#002550"/>
<path d="M13.1912 80.8594V80.5582H13.7037V77.9902H13.1912V77.689H14.3394L15.8511 80.2991V77.9902H15.3323V77.689H16.7441V77.9902H16.2572V80.8594H15.6895L14.1098 78.1377V80.5582H14.5966V80.8594H13.1912Z" fill="#002550"/>
<path d="M17.2837 80.8594V80.5582H17.7961V77.9902H17.2837V77.689H18.4319L19.9436 80.2991V77.9902H19.4248V77.689H20.8366V77.9902H20.3497V80.8594H19.782L18.2022 78.1377V80.5582H18.6891V80.8594H17.2837Z" fill="#002550"/>
<path d="M22.9964 80.9163C22.8036 80.9163 22.6236 80.8861 22.4563 80.8257C22.289 80.7639 22.1452 80.6789 22.0247 80.5708C21.9085 80.4655 21.8085 80.3426 21.7249 80.2022C21.6427 80.0603 21.5824 79.9107 21.5442 79.7535C21.5045 79.5976 21.4846 79.4368 21.4846 79.271C21.4846 78.9284 21.5647 78.6187 21.7249 78.342C21.8099 78.196 21.9113 78.071 22.0289 77.9671C22.148 77.8617 22.2883 77.7782 22.4499 77.7164C22.62 77.6546 22.8022 77.6237 22.9964 77.6237C23.1891 77.6237 23.3692 77.6546 23.5364 77.7164C23.7051 77.7782 23.849 77.8631 23.968 77.9713C24.0843 78.0766 24.1835 78.2002 24.2657 78.342C24.3479 78.4825 24.4089 78.6313 24.4485 78.7886C24.4868 78.9459 24.506 79.1067 24.506 79.271C24.506 79.6137 24.4259 79.9234 24.2657 80.2C24.1806 80.3461 24.0793 80.4711 23.9616 80.575C23.844 80.6789 23.7044 80.7611 23.5428 80.8215C23.3755 80.8847 23.1934 80.9163 22.9964 80.9163ZM22.9964 80.6214C23.1452 80.6214 23.282 80.5841 23.4067 80.5097C23.5329 80.4339 23.6363 80.3307 23.7171 80.2C23.7965 80.0737 23.8568 79.9311 23.8979 79.7724C23.9404 79.6123 23.9616 79.4466 23.9616 79.2753C23.9616 79.1376 23.9482 79.0035 23.9213 78.8729C23.8957 78.7423 23.856 78.6208 23.8022 78.5085C23.6845 78.2613 23.5293 78.09 23.3365 77.9945C23.2331 77.9439 23.1197 77.9186 22.9964 77.9186C22.8475 77.9186 22.7107 77.9565 22.586 78.0324C22.4613 78.1068 22.3578 78.2093 22.2756 78.3399C22.1962 78.4677 22.1353 78.6117 22.0927 78.7718C22.0502 78.9305 22.0289 79.0955 22.0289 79.2668C22.0289 79.5575 22.0828 79.8145 22.1905 80.0378C22.2472 80.1586 22.3131 80.2618 22.3883 80.3475C22.4648 80.4318 22.5541 80.4978 22.6562 80.5455C22.7611 80.5961 22.8745 80.6214 22.9964 80.6214Z" fill="#002550"/>
<path d="M26.5488 80.9331C26.4737 80.9331 26.4127 80.9107 26.3659 80.8657C26.3206 80.8208 26.2788 80.7442 26.2405 80.6361L25.2816 77.9902H24.7947V77.689H26.3192V77.9902H25.8705L26.6445 80.2422L27.395 77.9902H26.8316V77.689H28.2731V77.9902H27.7565L26.8401 80.6361C26.8131 80.7119 26.7869 80.7709 26.7614 80.8131C26.7373 80.8552 26.7083 80.8854 26.6742 80.9036C26.6416 80.9233 26.5998 80.9331 26.5488 80.9331Z" fill="#002550"/>
<path d="M27.9474 80.8594V80.5582H28.3301L29.4506 77.689H29.9545L31.092 80.5582H31.4492V80.8594H30.0736V80.5582H30.5477L30.2522 79.7977H29.0232L28.7447 80.5582H29.2805V80.8594H27.9474ZM29.1232 79.5302H30.1459L29.6207 78.1019L29.1232 79.5302Z" fill="#002550"/>
<path d="M32.1568 80.8594V80.5582H32.6522V77.9902H31.8379V78.9698H31.4424V77.689H34.3468V78.9698H33.9492V77.9902H33.154V80.5582H33.6622V80.8594H32.1568Z" fill="#002550"/>
<path d="M34.9204 80.8594V80.5582H35.4392V77.9902H34.9204V77.689H36.4279V77.9902H35.9389V80.5582H36.4279V80.8594H34.9204Z" fill="#002550"/>
<path d="M38.6196 80.9163C38.4268 80.9163 38.2468 80.8861 38.0795 80.8257C37.9123 80.7639 37.7684 80.6789 37.6479 80.5708C37.5317 80.4655 37.4318 80.3426 37.3481 80.2022C37.2659 80.0603 37.2057 79.9107 37.1674 79.7535C37.1277 79.5976 37.1079 79.4368 37.1079 79.271C37.1079 78.9284 37.188 78.6187 37.3481 78.342C37.4332 78.196 37.5345 78.071 37.6522 77.9671C37.7712 77.8617 37.9116 77.7782 38.0731 77.7164C38.2432 77.6546 38.4254 77.6237 38.6196 77.6237C38.8124 77.6237 38.9924 77.6546 39.1596 77.7164C39.3283 77.7782 39.4722 77.8631 39.5912 77.9713C39.7075 78.0766 39.8067 78.2002 39.8889 78.342C39.9711 78.4825 40.0321 78.6313 40.0718 78.7886C40.11 78.9459 40.1292 79.1067 40.1292 79.271C40.1292 79.6137 40.0491 79.9234 39.8889 80.2C39.8039 80.3461 39.7025 80.4711 39.5849 80.575C39.4672 80.6789 39.3276 80.7611 39.166 80.8215C38.9987 80.8847 38.8166 80.9163 38.6196 80.9163ZM38.6196 80.6214C38.7684 80.6214 38.9052 80.5841 39.0299 80.5097C39.1561 80.4339 39.2596 80.3307 39.3404 80.2C39.4197 80.0737 39.48 79.9311 39.5211 79.7724C39.5636 79.6123 39.5849 79.4466 39.5849 79.2753C39.5849 79.1376 39.5714 79.0035 39.5445 78.8729C39.519 78.7423 39.4793 78.6208 39.4254 78.5085C39.3078 78.2613 39.1525 78.09 38.9598 77.9945C38.8563 77.9439 38.7429 77.9186 38.6196 77.9186C38.4707 77.9186 38.334 77.9565 38.2092 78.0324C38.0845 78.1068 37.981 78.2093 37.8988 78.3399C37.8194 78.4677 37.7585 78.6117 37.7159 78.7718C37.6734 78.9305 37.6522 79.0955 37.6522 79.2668C37.6522 79.5575 37.706 79.8145 37.8138 80.0378C37.8705 80.1586 37.9364 80.2618 38.0115 80.3475C38.088 80.4318 38.1773 80.4978 38.2794 80.5455C38.3843 80.5961 38.4977 80.6214 38.6196 80.6214Z" fill="#002550"/>
<path d="M40.8155 80.8594V80.5582H41.3279V77.9902H40.8155V77.689H41.9636L43.4754 80.2991V77.9902H42.9566V77.689H44.3684V77.9902H43.8815V80.8594H43.3138L41.734 78.1377V80.5582H42.2209V80.8594H40.8155Z" fill="#002550"/>
<path d="M46.3576 80.8594V80.5582H46.8764V77.9902H46.3576V77.689H47.8651V77.9902H47.3761V80.5582H47.8651V80.8594H46.3576Z" fill="#002550"/>
<path d="M48.4366 80.8594V80.5582H48.949V77.9902H48.4366V77.689H49.5847L51.0965 80.2991V77.9902H50.5777V77.689H51.9895V77.9902H51.5026V80.8594H50.9349L49.3551 78.1377V80.5582H49.842V80.8594H48.4366Z" fill="#002550"/>
<path d="M56.6407 80.9289C56.5542 80.9289 56.4756 80.9135 56.4047 80.8826C56.3353 80.8531 56.2764 80.8117 56.2282 80.7583C56.1829 80.7091 56.1418 80.6417 56.1049 80.5561C56.0681 80.4704 56.0369 80.377 56.0114 80.2759C55.983 80.1607 55.9589 80.0463 55.9391 79.9325C55.9263 79.8525 55.9043 79.7787 55.8732 79.7113C55.842 79.6439 55.8087 79.5919 55.7732 79.5554C55.7392 79.5217 55.7031 79.4929 55.6648 79.4691C55.6265 79.4452 55.5946 79.4297 55.5691 79.4227C55.5464 79.4171 55.5252 79.4143 55.5053 79.4143H55.0035V80.5582H55.4862V80.8594H53.9851V80.5582H54.5018V77.9902H53.9851V77.689H55.3076C55.4011 77.689 55.4791 77.6904 55.5415 77.6932C55.6053 77.696 55.6853 77.7016 55.7817 77.7101C55.8994 77.7213 55.9958 77.7368 56.0709 77.7564C56.1474 77.7761 56.2325 77.807 56.326 77.8491C56.4153 77.8898 56.4862 77.939 56.5387 77.9966C56.5925 78.0527 56.6379 78.1265 56.6747 78.2178C56.7102 78.3062 56.7279 78.4088 56.7279 78.5253C56.7279 78.7711 56.6506 78.9544 56.4961 79.0751C56.421 79.1327 56.3395 79.1798 56.2516 79.2163C56.1637 79.2514 56.0581 79.2816 55.9348 79.3069C56.017 79.3237 56.0858 79.3469 56.1411 79.3764C56.1963 79.4059 56.2431 79.4445 56.2814 79.4922C56.3168 79.5386 56.3452 79.5877 56.3664 79.6397C56.3891 79.6917 56.4125 79.7605 56.4366 79.8461C56.455 79.915 56.4812 80.0287 56.5153 80.1874C56.5238 80.2352 56.5365 80.2843 56.5535 80.3349C56.5705 80.3854 56.5876 80.4247 56.6046 80.4528C56.623 80.4837 56.6464 80.509 56.6747 80.5287C56.7031 80.5483 56.735 80.5582 56.7704 80.5582C56.9164 80.5582 56.9894 80.4254 56.9894 80.16V79.8672H57.2764V80.1769C57.2764 80.6782 57.0645 80.9289 56.6407 80.9289ZM55.2693 79.0983C55.4975 79.0983 55.6825 79.0822 55.8243 79.0499C55.966 79.0161 56.0766 78.96 56.1559 78.8813C56.2382 78.8013 56.2793 78.6952 56.2793 78.5632C56.2793 78.4495 56.2587 78.3554 56.2176 78.281C56.1765 78.2065 56.1113 78.1475 56.022 78.104C55.9341 78.0633 55.8299 78.0345 55.7094 78.0176C55.5904 77.9994 55.438 77.9902 55.2523 77.9902H55.0035V79.0983H55.2693Z" fill="#002550"/>
<path d="M57.7884 80.8594V80.5582H58.3115V77.9902H57.7884V77.689H60.68V78.9087H60.2952V77.9902H58.8111V79.1299H59.6042V78.6117H59.887V79.9199H59.6042V79.3701H58.8111V80.5582H60.2952V79.6565H60.68V80.8594H57.7884Z" fill="#002550"/>
<path d="M61.326 80.8594V80.5582H61.7087L62.8292 77.689H63.3331L64.4706 80.5582H64.8278V80.8594H63.4522V80.5582H63.9263L63.6308 79.7977H62.4018L62.1233 80.5582H62.6591V80.8594H61.326ZM62.5018 79.5302H63.5244L62.9993 78.1019L62.5018 79.5302Z" fill="#002550"/>
<path d="M65.3483 80.8594V80.5582H65.865V77.9902H65.3483V77.689H66.8536V77.9902H66.3667V80.5582H67.568V79.5428H67.9656V80.8594H65.3483Z" fill="#002550"/>
<path d="M68.9475 80.8594V80.5582H69.4429V77.9902H68.6286V78.9698H68.2331V77.689H71.1375V78.9698H70.7399V77.9902H69.9447V80.5582H70.4528V80.8594H68.9475Z" fill="#002550"/>
<path d="M72.5318 80.8594V80.5582H73.0485V79.606L72.13 77.9902H71.6962V77.689H73.1187V77.9902H72.6318L73.3504 79.2984L74.0903 77.9902H73.6162V77.689H74.9047V77.9902H74.5028L73.5503 79.6165V80.5582H74.0372V80.8594H72.5318Z" fill="#002550"/>
<path d="M0 79.6075L7.07595 79.6075M78.924 79.6075L86 79.6075M11.427 70.7266H0.453815V69.4151C1.47565 69.4151 2.21881 69.3345 2.68328 69.1735C3.14776 68.9894 3.43805 68.6557 3.55417 68.1725C3.69351 67.6663 3.76318 66.9185 3.76318 65.9291V52.9173C3.76318 51.9969 3.69351 51.2836 3.55417 50.7774C3.43805 50.2712 3.14776 49.9145 2.68328 49.7075C2.21881 49.4774 1.47565 49.3623 0.453815 49.3623V48.0508H11.4967V49.3623C10.4516 49.3623 9.68521 49.4774 9.19751 49.7075C8.73304 49.9145 8.44274 50.2827 8.32663 50.8119C8.23373 51.3181 8.18728 52.0199 8.18728 52.9173V65.9291C8.18728 66.8955 8.24534 67.6318 8.36146 68.138C8.5008 68.6442 8.7911 68.9894 9.23235 69.1735C9.69682 69.3345 10.4284 69.4151 11.427 69.4151V70.7266ZM35.8368 70.9682H32.8758L19.1507 52.9173H18.0011L17.0954 51.3641C16.6773 50.7889 16.2941 50.3632 15.9458 50.0871C15.6207 49.811 15.2723 49.6269 14.9007 49.5349C14.5524 49.4198 14.1227 49.3623 13.6118 49.3623V48.0508H21.0666L33.5377 64.445H33.7119V53.8146C33.7119 52.8483 33.6538 52.0429 33.5377 51.3987C33.4216 50.7314 33.1313 50.2252 32.6668 49.88C32.2256 49.5349 31.4708 49.3623 30.4025 49.3623V48.0508H38.972V49.3623C38.0198 49.3623 37.3115 49.5349 36.8471 49.88C36.4058 50.2252 36.1271 50.7429 36.011 51.4332C35.8949 52.1004 35.8368 52.9173 35.8368 53.8837V70.9682ZM22.1465 70.7266H13.6118V69.4151C14.5408 69.4151 15.2375 69.185 15.7019 68.7248C16.1664 68.2416 16.4799 67.5743 16.6425 66.7229C16.8051 65.8716 16.8863 64.8707 16.8863 63.7202V50.4668H18.9765V65.3079C18.9765 66.4583 19.0578 67.3327 19.2203 67.9309C19.3829 68.5062 19.6964 68.8973 20.1609 69.1044C20.6254 69.3115 21.2872 69.4151 22.1465 69.4151V70.7266ZM52.1534 70.7266H41.0409V69.4151C41.9234 69.4151 42.5853 69.346 43.0265 69.208C43.491 69.0699 43.8045 68.7708 43.9671 68.3106C44.1297 67.8504 44.2109 67.1371 44.2109 66.1707V52.0199C44.2109 51.3296 44.1413 50.8004 44.0019 50.4323C43.8626 50.0411 43.5607 49.765 43.0962 49.6039C42.655 49.4429 41.9699 49.3623 41.0409 49.3623V48.0508H51.3522C53.0243 48.0508 54.5455 48.2234 55.9156 48.5685C57.3091 48.9136 58.4122 49.5119 59.225 50.3632C60.0378 51.1916 60.4443 52.342 60.4443 53.8146C60.4443 55.0802 60.1656 56.1156 59.6082 56.9209C59.0741 57.7032 58.3774 58.313 57.5181 58.7502C56.682 59.1874 55.7763 59.521 54.8009 59.7511V59.9237C55.1725 60.1538 55.5789 60.5334 56.0202 61.0626C56.4846 61.5918 57.0884 62.3857 57.8316 63.4441C58.5748 64.4795 59.5734 65.8831 60.8274 67.6548C61.3848 68.4141 61.9306 68.8973 62.4647 69.1044C63.0221 69.3115 63.6956 69.4151 64.4852 69.4151V70.7266H57.3787C56.5427 69.323 55.846 68.161 55.2886 67.2407C54.7312 66.3203 54.2552 65.561 53.8604 64.9627C53.4656 64.3415 53.1056 63.7892 52.7805 63.306C52.4785 62.7998 52.1534 62.2821 51.8051 61.7529C51.4799 61.2237 51.1664 60.9016 50.8645 60.7865C50.5626 60.6485 50.1097 60.5794 49.5059 60.5794H48.7047V66.2052C48.7047 67.1256 48.786 67.8274 48.9486 68.3106C49.1111 68.7708 49.4363 69.0699 49.9239 69.208C50.4116 69.346 51.1548 69.4151 52.1534 69.4151V70.7266ZM48.7047 59.0263L50.0285 59.0608C51.2361 58.9918 52.2579 58.7962 53.094 58.4741C53.9533 58.1519 54.6035 57.6342 55.0448 56.9209C55.5092 56.2076 55.7415 55.2297 55.7415 53.9872C55.7415 52.6527 55.3583 51.5942 54.5919 50.8119C53.8255 50.0066 52.5831 49.6039 50.8645 49.6039C50.4929 49.6039 50.1214 49.6154 49.7498 49.6384C49.4014 49.6384 49.0531 49.6614 48.7047 49.7075V59.0263ZM84.9031 70.7266H65.4301V69.4151C66.2893 69.4151 66.9512 69.3575 67.4157 69.2425C67.9034 69.1044 68.2401 68.8283 68.4259 68.4141C68.6349 68 68.7394 67.3557 68.7394 66.4813V52.5376C68.7394 51.6633 68.6582 51.0075 68.4956 50.5703C68.3563 50.1101 68.0427 49.7995 67.555 49.6384C67.0906 49.4774 66.3822 49.3968 65.4301 49.3968V48.0508H84.5547L84.7637 54.0908H83.231C83.0684 53.0093 82.8246 52.1695 82.4994 51.5712C82.1975 50.973 81.6982 50.5588 81.0015 50.3287C80.328 50.0986 79.3178 49.9836 77.9708 49.9836H73.1635V58.2325H76.6471C77.7618 58.2325 78.5863 58.1634 79.1204 58.0254C79.6778 57.8873 80.0377 57.5997 80.2003 57.1625C80.3861 56.7023 80.479 56.0236 80.479 55.1262H81.9072V63.099H80.479C80.479 62.1326 80.3861 61.4308 80.2003 60.9936C80.0377 60.5334 79.6778 60.2458 79.1204 60.1307C78.5863 59.9927 77.7618 59.9237 76.6471 59.9237H73.1635V68.8283H77.4135C78.6443 68.8283 79.6429 68.7708 80.4093 68.6557C81.1757 68.5177 81.7911 68.2761 82.2556 67.9309C82.7201 67.5858 83.1033 67.1026 83.4052 66.4813C83.7071 65.8601 84.009 65.0548 84.3109 64.0654H85.774L84.9031 70.7266ZM11.1123 80.8594V80.5582H11.631V77.9902H11.1123V77.689H12.6197V77.9902H12.1307V80.5582H12.6197V80.8594H11.1123ZM13.1912 80.8594V80.5582H13.7037V77.9902H13.1912V77.689H14.3394L15.8511 80.2991V77.9902H15.3323V77.689H16.7441V77.9902H16.2572V80.8594H15.6895L14.1098 78.1377V80.5582H14.5966V80.8594H13.1912ZM17.2837 80.8594V80.5582H17.7961V77.9902H17.2837V77.689H18.4319L19.9436 80.2991V77.9902H19.4248V77.689H20.8366V77.9902H20.3497V80.8594H19.782L18.2022 78.1377V80.5582H18.6891V80.8594H17.2837ZM22.9964 80.9163C22.8036 80.9163 22.6236 80.8861 22.4563 80.8257C22.289 80.7639 22.1452 80.6789 22.0247 80.5708C21.9085 80.4655 21.8085 80.3426 21.7249 80.2022C21.6427 80.0603 21.5824 79.9107 21.5442 79.7535C21.5045 79.5976 21.4846 79.4368 21.4846 79.271C21.4846 78.9284 21.5647 78.6187 21.7249 78.342C21.8099 78.196 21.9113 78.071 22.0289 77.9671C22.148 77.8617 22.2883 77.7782 22.4499 77.7164C22.62 77.6546 22.8022 77.6237 22.9964 77.6237C23.1891 77.6237 23.3692 77.6546 23.5364 77.7164C23.7051 77.7782 23.849 77.8631 23.968 77.9713C24.0843 78.0766 24.1835 78.2002 24.2657 78.342C24.3479 78.4825 24.4089 78.6313 24.4485 78.7886C24.4868 78.9459 24.506 79.1067 24.506 79.271C24.506 79.6137 24.4259 79.9234 24.2657 80.2C24.1806 80.3461 24.0793 80.4711 23.9616 80.575C23.844 80.6789 23.7044 80.7611 23.5428 80.8215C23.3755 80.8847 23.1934 80.9163 22.9964 80.9163ZM22.9964 80.6214C23.1452 80.6214 23.282 80.5841 23.4067 80.5097C23.5329 80.4339 23.6363 80.3307 23.7171 80.2C23.7965 80.0737 23.8568 79.9311 23.8979 79.7724C23.9404 79.6123 23.9616 79.4466 23.9616 79.2753C23.9616 79.1376 23.9482 79.0035 23.9213 78.8729C23.8957 78.7423 23.856 78.6208 23.8022 78.5085C23.6845 78.2613 23.5293 78.09 23.3365 77.9945C23.2331 77.9439 23.1197 77.9186 22.9964 77.9186C22.8475 77.9186 22.7107 77.9565 22.586 78.0324C22.4613 78.1068 22.3578 78.2093 22.2756 78.3399C22.1962 78.4677 22.1353 78.6117 22.0927 78.7718C22.0502 78.9305 22.0289 79.0955 22.0289 79.2668C22.0289 79.5575 22.0828 79.8145 22.1905 80.0378C22.2472 80.1586 22.3131 80.2618 22.3883 80.3475C22.4648 80.4318 22.5541 80.4978 22.6562 80.5455C22.7611 80.5961 22.8745 80.6214 22.9964 80.6214ZM26.5488 80.9331C26.4737 80.9331 26.4127 80.9107 26.3659 80.8657C26.3206 80.8208 26.2788 80.7442 26.2405 80.6361L25.2816 77.9902H24.7947V77.689H26.3192V77.9902H25.8705L26.6445 80.2422L27.395 77.9902H26.8316V77.689H28.2731V77.9902H27.7565L26.8401 80.6361C26.8131 80.7119 26.7869 80.7709 26.7614 80.8131C26.7373 80.8552 26.7083 80.8854 26.6742 80.9036C26.6416 80.9233 26.5998 80.9331 26.5488 80.9331ZM27.9474 80.8594V80.5582H28.3301L29.4506 77.689H29.9545L31.092 80.5582H31.4492V80.8594H30.0736V80.5582H30.5477L30.2522 79.7977H29.0232L28.7447 80.5582H29.2805V80.8594H27.9474ZM29.1232 79.5302H30.1459L29.6207 78.1019L29.1232 79.5302ZM32.1568 80.8594V80.5582H32.6522V77.9902H31.8379V78.9698H31.4424V77.689H34.3468V78.9698H33.9492V77.9902H33.154V80.5582H33.6622V80.8594H32.1568ZM34.9204 80.8594V80.5582H35.4392V77.9902H34.9204V77.689H36.4279V77.9902H35.9389V80.5582H36.4279V80.8594H34.9204ZM38.6196 80.9163C38.4268 80.9163 38.2468 80.8861 38.0795 80.8257C37.9123 80.7639 37.7684 80.6789 37.6479 80.5708C37.5317 80.4655 37.4318 80.3426 37.3481 80.2022C37.2659 80.0603 37.2057 79.9107 37.1674 79.7535C37.1277 79.5976 37.1079 79.4368 37.1079 79.271C37.1079 78.9284 37.1879 78.6187 37.3481 78.342C37.4332 78.196 37.5345 78.071 37.6522 77.9671C37.7712 77.8617 37.9116 77.7782 38.0731 77.7164C38.2432 77.6546 38.4254 77.6237 38.6196 77.6237C38.8124 77.6237 38.9924 77.6546 39.1596 77.7164C39.3283 77.7782 39.4722 77.8631 39.5912 77.9713C39.7075 78.0766 39.8067 78.2002 39.8889 78.342C39.9711 78.4825 40.0321 78.6313 40.0718 78.7886C40.11 78.9459 40.1292 79.1067 40.1292 79.271C40.1292 79.6137 40.0491 79.9234 39.8889 80.2C39.8039 80.3461 39.7025 80.4711 39.5849 80.575C39.4672 80.6789 39.3276 80.7611 39.166 80.8215C38.9987 80.8847 38.8166 80.9163 38.6196 80.9163ZM38.6196 80.6214C38.7684 80.6214 38.9052 80.5841 39.0299 80.5097C39.1561 80.4339 39.2596 80.3307 39.3404 80.2C39.4197 80.0737 39.48 79.9311 39.5211 79.7724C39.5636 79.6123 39.5849 79.4466 39.5849 79.2753C39.5849 79.1376 39.5714 79.0035 39.5445 78.8729C39.519 78.7423 39.4793 78.6208 39.4254 78.5085C39.3078 78.2613 39.1525 78.09 38.9598 77.9945C38.8563 77.9439 38.7429 77.9186 38.6196 77.9186C38.4707 77.9186 38.334 77.9565 38.2092 78.0324C38.0845 78.1068 37.981 78.2093 37.8988 78.3399C37.8194 78.4677 37.7585 78.6117 37.7159 78.7718C37.6734 78.9305 37.6522 79.0955 37.6522 79.2668C37.6522 79.5575 37.706 79.8145 37.8138 80.0378C37.8705 80.1586 37.9364 80.2618 38.0115 80.3475C38.088 80.4318 38.1773 80.4978 38.2794 80.5455C38.3843 80.5961 38.4977 80.6214 38.6196 80.6214ZM40.8155 80.8594V80.5582H41.3279V77.9902H40.8155V77.689H41.9636L43.4754 80.2991V77.9902H42.9566V77.689H44.3684V77.9902H43.8815V80.8594H43.3138L41.734 78.1377V80.5582H42.2209V80.8594H40.8155ZM46.3576 80.8594V80.5582H46.8764V77.9902H46.3576V77.689H47.8651V77.9902H47.3761V80.5582H47.8651V80.8594H46.3576ZM48.4366 80.8594V80.5582H48.949V77.9902H48.4366V77.689H49.5847L51.0965 80.2991V77.9902H50.5777V77.689H51.9895V77.9902H51.5026V80.8594H50.9349L49.3551 78.1377V80.5582H49.842V80.8594H48.4366ZM56.6407 80.9289C56.5542 80.9289 56.4756 80.9135 56.4047 80.8826C56.3353 80.8531 56.2764 80.8117 56.2282 80.7583C56.1829 80.7091 56.1418 80.6417 56.1049 80.5561C56.0681 80.4704 56.0369 80.377 56.0114 80.2759C55.983 80.1607 55.9589 80.0463 55.9391 79.9325C55.9263 79.8525 55.9043 79.7787 55.8732 79.7113C55.842 79.6439 55.8087 79.5919 55.7732 79.5554C55.7392 79.5217 55.7031 79.4929 55.6648 79.4691C55.6265 79.4452 55.5946 79.4297 55.5691 79.4227C55.5464 79.4171 55.5252 79.4143 55.5053 79.4143H55.0035V80.5582H55.4862V80.8594H53.9851V80.5582H54.5018V77.9902H53.9851V77.689H55.3076C55.4011 77.689 55.4791 77.6904 55.5415 77.6932C55.6053 77.696 55.6853 77.7016 55.7817 77.7101C55.8994 77.7213 55.9958 77.7368 56.0709 77.7564C56.1474 77.7761 56.2325 77.807 56.326 77.8491C56.4153 77.8898 56.4862 77.939 56.5387 77.9966C56.5925 78.0527 56.6379 78.1265 56.6747 78.2178C56.7102 78.3062 56.7279 78.4088 56.7279 78.5253C56.7279 78.7711 56.6506 78.9544 56.4961 79.0751C56.421 79.1327 56.3395 79.1798 56.2516 79.2163C56.1637 79.2514 56.0581 79.2816 55.9348 79.3069C56.017 79.3237 56.0858 79.3469 56.1411 79.3764C56.1963 79.4059 56.2431 79.4445 56.2814 79.4922C56.3168 79.5386 56.3452 79.5877 56.3664 79.6397C56.3891 79.6917 56.4125 79.7605 56.4366 79.8461C56.455 79.915 56.4812 80.0287 56.5153 80.1874C56.5238 80.2352 56.5365 80.2843 56.5535 80.3349C56.5705 80.3854 56.5876 80.4247 56.6046 80.4528C56.623 80.4837 56.6464 80.509 56.6747 80.5287C56.7031 80.5483 56.735 80.5582 56.7704 80.5582C56.9164 80.5582 56.9894 80.4255 56.9894 80.16V79.8672H57.2764V80.1769C57.2764 80.6782 57.0645 80.9289 56.6407 80.9289ZM55.2693 79.0983C55.4975 79.0983 55.6825 79.0822 55.8243 79.0499C55.966 79.0162 56.0766 78.96 56.1559 78.8813C56.2382 78.8013 56.2793 78.6952 56.2793 78.5632C56.2793 78.4495 56.2587 78.3554 56.2176 78.281C56.1765 78.2065 56.1113 78.1475 56.022 78.104C55.9341 78.0633 55.8299 78.0345 55.7094 78.0176C55.5904 77.9994 55.438 77.9902 55.2523 77.9902H55.0035V79.0983H55.2693ZM57.7884 80.8594V80.5582H58.3115V77.9902H57.7884V77.689H60.68V78.9087H60.2952V77.9902H58.8111V79.1299H59.6042V78.6117H59.887V79.9199H59.6042V79.3701H58.8111V80.5582H60.2952V79.6565H60.68V80.8594H57.7884ZM61.326 80.8594V80.5582H61.7087L62.8292 77.689H63.3331L64.4706 80.5582H64.8278V80.8594H63.4522V80.5582H63.9263L63.6308 79.7977H62.4018L62.1233 80.5582H62.6591V80.8594H61.326ZM62.5018 79.5302H63.5245L62.9993 78.1019L62.5018 79.5302ZM65.3483 80.8594V80.5582H65.865V77.9902H65.3483V77.689H66.8536V77.9902H66.3667V80.5582H67.568V79.5428H67.9656V80.8594H65.3483ZM68.9475 80.8594V80.5582H69.4429V77.9902H68.6286V78.9698H68.2331V77.689H71.1375V78.9698H70.7399V77.9902H69.9447V80.5582H70.4528V80.8594H68.9475ZM72.5318 80.8594V80.5582H73.0485V79.606L72.13 77.9902H71.6962V77.689H73.1187V77.9902H72.6318L73.3504 79.2984L74.0903 77.9902H73.6162V77.689H74.9047V77.9902H74.5028L73.5503 79.6165V80.5582H74.0372V80.8594H72.5318Z" stroke="#002550" stroke-width="0.120698"/>
</svg>
